<?xml version="1.0" encoding="UTF-8" standalone="no"?>
<svg
   xmlns:dc="http://purl.org/dc/elements/1.1/"
   xmlns:cc="http://creativecommons.org/ns#"
   xmlns:rdf="http://www.w3.org/1999/02/22-rdf-syntax-ns#"
   xmlns:svg="http://www.w3.org/2000/svg"
   xmlns="http://www.w3.org/2000/svg"
   xmlns:sodipodi="http://sodipodi.sourceforge.net/DTD/sodipodi-0.dtd"
   xmlns:inkscape="http://www.inkscape.org/namespaces/inkscape"
   width="231.246mm"
   height="173.46001mm"
   viewBox="0 0 231.246 173.46001"
   version="1.1"
   id="svg8"
   inkscape:version="1.0.2 (1.0.2+r75+1)"
   sodipodi:docname="cli-app.svg">
  <defs
     id="defs2" />
  <sodipodi:namedview
     id="base"
     pagecolor="#ffffff"
     bordercolor="#666666"
     borderopacity="1.0"
     inkscape:pageopacity="0.0"
     inkscape:pageshadow="2"
     inkscape:zoom="0.35"
     inkscape:cx="806.44072"
     inkscape:cy="518.30622"
     inkscape:document-units="mm"
     inkscape:current-layer="layer1"
     inkscape:document-rotation="0"
     showgrid="false"
     inkscape:window-width="1514"
     inkscape:window-height="1016"
     inkscape:window-x="203"
     inkscape:window-y="27"
     inkscape:window-maximized="0"
     inkscape:snap-bbox="true"
     inkscape:bbox-nodes="true"
     inkscape:snap-global="false" />
  <metadata
     id="metadata5">
    <rdf:RDF>
      <cc:Work
         rdf:about="">
        <dc:format>image/svg+xml</dc:format>
        <dc:type
           rdf:resource="http://purl.org/dc/dcmitype/StillImage" />
        <dc:title />
      </cc:Work>
    </rdf:RDF>
  </metadata>
  <g
     inkscape:label="Layer 1"
     inkscape:groupmode="layer"
     id="layer1">
    <g
       id="g20"
       transform="matrix(0.84854134,0,0,0.84854134,26.239666,24.489968)"
       style="fill:#000000;stroke:none">
      <path
         id="path24"
         style="fill:#000000;stroke-width:0.323221;stroke:none"
         d="m 140.72325,100.01334 c -22.7032,0.0113 -28.77747,0.10063 -29.72244,0.43812 -4.27824,1.52794 -6.68265,6.82138 -5.1406,11.31778 0.75881,2.21255 3.37483,4.62468 5.84133,5.38554 v -6.3e-4 c 0.44558,0.13746 13.68223,0.22483 29.415,0.19381 l 28.60505,-0.0568 1.3074,-0.69947 c 0.71909,-0.38501 1.91157,-1.35583 2.65016,-2.15712 4.05441,-4.39851 2.36627,-11.5995 -3.27198,-13.95531 -0.98827,-0.41294 -5.14956,-0.47811 -29.68392,-0.4659 z" />
      <path
         id="path15"
         style="fill:#000000;stroke-width:0.323221;stroke:none"
         d="m 42.696405,29.30246 c -3.095441,0.182455 -6.001633,2.023314 -7.314767,4.913966 -0.895487,1.971272 -0.808925,5.129186 0.195701,7.135482 0.601456,1.201122 4.580654,5.376353 15.998174,16.787286 L 66.772574,73.327418 51.436628,88.683569 c -16.758367,16.780401 -16.64002,16.636191 -16.652822,20.295361 -0.01238,3.54149 1.435301,5.90552 4.594536,7.50416 1.802923,0.91226 2.254854,1.0093 4.128009,0.88444 1.156934,-0.0771 2.611428,-0.39462 3.232209,-0.70579 0.620785,-0.31116 9.128466,-8.51511 18.905899,-18.230411 C 75.421891,88.716036 83.96725,80.361232 84.634317,79.864435 88.326501,77.114733 88.408389,69.782302 84.778253,66.948224 84.039487,66.371459 75.359732,57.880275 65.489791,48.078943 48.597113,31.303685 47.441967,30.224951 45.802988,29.695121 44.781135,29.364793 43.72822,29.241642 42.696405,29.30246 Z" />
    </g>
    <path
       id="path13"
       style="fill:#000000;stroke-width:0.999999;stroke:none"
       d="M 437 0 C 35.590182 -5.9211894e-16 19.850456 0.067015278 16 1.8222656 C 10.048102 4.5354371 5.724877 8.6041702 2.7011719 14.335938 L 0 19.455078 L 0 327.45508 L 0 635.45508 L 2.7011719 640.57617 C 7.0013784 648.72771 13.903336 653.63139 22.960938 654.9707 C 25.732203 655.38052 213.62503 655.65737 440.5 655.58594 L 853 655.45508 L 858 653.15234 C 864.3484 650.22748 867.99516 646.75714 871.34375 640.45508 L 874 635.45508 L 874 327.45508 L 874 19.455078 L 871.29883 14.335938 C 868.27513 8.6041702 863.95189 4.5354371 858 1.8222656 C 854.14957 0.066864097 838.40982 2.9605947e-16 437 0 z M 74 54.455078 L 437 54.455078 L 800 54.455078 L 805.5 57.546875 C 809.34367 59.707177 812.20459 62.370417 815 66.390625 L 819 72.142578 L 819.29297 325.29883 C 819.49294 498.13334 819.25757 579.59893 818.54883 582.05664 C 816.95137 587.59622 811.32338 594.18425 805.37891 597.47656 L 800 600.45508 L 438.5 600.66406 C 135.97396 600.83894 76.38098 600.65292 73.199219 599.51562 C 64.543144 596.42156 57.934476 589.62375 55.542969 581.35547 C 54.715437 578.49425 54.492127 510.33264 54.707031 325.45508 C 54.994094 78.518833 55.039678 73.377692 56.9375 69.552734 C 59.407111 64.575323 64.391853 59.590585 69.777344 56.712891 L 74 54.455078 z "
       transform="scale(0.26458333)" />
  </g>
</svg>
