<?xml version="1.0" encoding="UTF-8" standalone="no"?>
<svg
   xmlns:dc="http://purl.org/dc/elements/1.1/"
   xmlns:cc="http://creativecommons.org/ns#"
   xmlns:rdf="http://www.w3.org/1999/02/22-rdf-syntax-ns#"
   xmlns:svg="http://www.w3.org/2000/svg"
   xmlns="http://www.w3.org/2000/svg"
   xmlns:sodipodi="http://sodipodi.sourceforge.net/DTD/sodipodi-0.dtd"
   xmlns:inkscape="http://www.inkscape.org/namespaces/inkscape"
   height="1841.106"
   viewBox="0 0 1610.783 1841.106"
   width="1610.783"
   version="1.1"
   id="svg4"
   sodipodi:docname="database.svg"
   inkscape:version="1.0.2 (1.0.2+r75+1)">
  <metadata
     id="metadata10">
    <rdf:RDF>
      <cc:Work
         rdf:about="">
        <dc:format>image/svg+xml</dc:format>
        <dc:type
           rdf:resource="http://purl.org/dc/dcmitype/StillImage" />
        <dc:title></dc:title>
      </cc:Work>
    </rdf:RDF>
  </metadata>
  <defs
     id="defs8" />
  <sodipodi:namedview
     pagecolor="#ffffff"
     bordercolor="#666666"
     borderopacity="1"
     objecttolerance="10"
     gridtolerance="10"
     guidetolerance="10"
     inkscape:pageopacity="0"
     inkscape:pageshadow="2"
     inkscape:window-width="1920"
     inkscape:window-height="1016"
     id="namedview6"
     showgrid="false"
     inkscape:zoom="0.24051339"
     inkscape:cx="1236.6786"
     inkscape:cy="1094.2101"
     inkscape:window-x="0"
     inkscape:window-y="27"
     inkscape:window-maximized="1"
     inkscape:current-layer="svg4" />
  <path
     style="fill:#000000;stroke-width:3.55177;stroke:none"
     d="M 630.46781,1835.8421 C 410.94831,1814.4444 234.35551,1761.404 125.98501,1684.3184 81.844711,1652.9207 42.694911,1610.1796 25.041911,1574.1156 -1.8607911,1519.155 0.02860895,1568.5296 0.02860895,920.47024 0.02860895,279.13257 -1.3659911,320.37278 21.908811,273.45435 91.942711,132.27667 322.01181,33.233739 646.45081,4.5940109 c 77.5249,-6.843486 265.34146,-5.864349 337.41806,1.75905 262.01593,27.7128781 448.05983,92.9505681 548.83583,192.4534291 34.3598,33.92564 51.7221,59.58326 66.8276,98.75654 l 11.224,29.10718 v 593.14563 c 0,652.90706 1.6628,602.10266 -21.2366,648.86926 -68.407,139.7053 -294.5715,237.9407 -616.30613,267.6948 -70.75176,6.5431 -273.36346,6.2252 -342.74576,-0.5378 z m 301.90046,-111.6643 c 158.04753,-11.5592 315.55823,-46.6342 411.66373,-91.6708 68.0932,-31.9095 122.3981,-76.1673 142.4124,-116.064 l 10.6553,-21.2405 1.1056,-120.3851 1.1055,-120.3852 -17.0885,14.239 c -94.4458,78.6971 -252.4145,133.7038 -451.8032,157.3237 -361.22189,42.7909 -740.53909,-21.5049 -893.76639,-151.497 l -23.3175,-19.7817 1.0629,122.0191 1.063,122.019 9.5761,18.1513 c 38.4354,72.8532 152.8407,134.9709 318.9627,173.1844 63.8694,14.692 160.1945,29.1673 223.7615,33.6257 63.6644,4.4652 206.4629,4.7146 264.60686,0.4621 z m 369.38403,-173.7957 c -21.3019,-8.9195 -35.2045,-33.3794 -32.8572,-57.8082 2.068,-21.5221 10.7979,-33.983 31.2893,-44.6616 37.4812,-19.5325 81.4828,7.0581 81.4828,49.2409 0,33.0418 -23.1816,56.8302 -54.989,56.4284 -9.8023,-0.124 -21.0189,-1.5636 -24.9259,-3.1995 z M 980.31717,1374.4998 c 70.65763,-7.4297 150.00713,-20.6149 205.08513,-34.0782 134.8047,-32.9519 247.0838,-90.4357 286.1711,-146.5119 26.6489,-38.2316 25.3817,-30.3569 26.6158,-165.3995 l 1.1165,-122.17059 -17.9739,16.16013 c -84.9372,76.3658 -250.5326,133.78066 -460.9515,159.82006 -55.73403,6.8971 -80.45853,7.8231 -210.54809,7.8855 -157.8575,0.076 -190.8408,-2.2595 -305.4522,-21.6255 -166.8061,-28.1852 -305.3613,-82.34786 -373.355,-145.94796 l -17.688,-16.54501 1.0621,124.07287 1.062,124.0729 9.4518,17.7589 c 41.9838,78.8828 172.0387,144.2163 363.4841,182.5973 44.1691,8.855 138.3865,20.8212 197.1232,25.0358 63.9314,4.5874 229.86496,1.7028 294.79696,-5.1248 z m 321.44313,-170.6061 c -15.72,-8.4979 -23.4986,-16.3336 -28.9123,-29.1243 -11.2389,-26.5534 -2.3019,-53.8129 23.2985,-71.065 24.6213,-16.5922 62.8391,-6.6199 77.9984,20.3525 14.7084,26.17 7.4273,56.8248 -17.9635,75.6302 -12.8307,9.5028 -40.6464,11.6529 -54.4211,4.2066 z M 941.24767,1031.6304 c 193.76443,-14.5506 365.19393,-60.80976 467.05773,-126.03261 30.8466,-19.75086 66.1101,-56.49041 78.3983,-81.67977 l 10.396,-21.31062 1.0749,-110.99282 c 0.5913,-61.04605 0.4287,-110.99281 -0.3613,-110.99281 -0.7899,0 -12.4617,7.32254 -25.9373,16.27233 -71.6977,47.6178 -189.8102,91.70457 -312.1945,116.52995 -169.87593,34.45895 -388.74939,43.37002 -568.28319,23.13665 -176.4294,-19.88348 -344.9084,-71.34216 -445.7471,-136.14499 -12.6976,-8.15994 -25.1682,-16.09786 -27.7125,-17.63983 -3.7706,-2.28517 -4.4273,18.10724 -3.5518,110.28988 l 1.0742,113.09341 10.5009,20.74375 c 13.3831,26.43718 54.7199,65.66112 93.0918,88.33356 71.9873,42.53436 174.854,76.51066 292.4297,96.58782 48.7268,8.3207 129.6882,18.3826 168.7091,20.9673 43.4717,2.8795 217.5578,2.1052 261.05506,-1.1612 z M 1314.1835,861.19594 c -40.9528,-7.12393 -59.8347,-56.66061 -34.3387,-90.08767 32.2681,-42.30563 101.7779,-19.58602 101.8036,33.27501 0.018,37.91476 -30.1342,63.30647 -67.4649,56.81266 z M 893.29881,630.19602 C 1079.4525,620.98256 1233.8743,588.29466 1345.3138,534.51375 1462.1635,478.12198 1512.9621,414.23754 1493.684,347.92318 1479.0681,297.64632 1436.2481,256.40204 1357.7672,217.00804 1141.6003,108.50157 729.87371,81.607349 426.80611,156.19713 c -154.0049,37.90308 -262.4332,98.03231 -299.2676,165.95977 -10.9174,20.13296 -12.0672,25.00127 -11.9713,50.68632 0.1322,35.44244 8.3354,53.83418 38.2968,85.86301 71.2327,76.14803 231.4522,135.40999 435.3551,161.02905 104.6647,13.15043 190.249,16.09463 304.0797,10.46074 z"
     id="path26" />
</svg>
