<?xml version="1.0" encoding="UTF-8" standalone="no"?>
<svg
        xmlns="http://www.w3.org/2000/svg"
        version="1.1"
        id="Layer_1"
        x="0px"
        y="0px"
        viewBox="0 0 122.88 115.39"
        xml:space="preserve"
        style="enable-background:new 0 0 122.88 115.39"
><metadata
     id="metadata13"><![CDATA[image/svg+xml]]></metadata>
    <defs
            id="defs11"/>
    <style
            type="text/css"
            id="style2"><![CDATA[
	.st0{fill-rule:evenodd;clip-rule:evenodd;}
]]></style>
    <path
            id="path4"
            style="fill:#000000;stroke:none"
            d="m 37.460938,88.55321 c -0.88,0 -1.601563,0.79172 -1.601563,1.76172 0,0.96 0.721562,1.75 1.601563,1.75 v 0.0098 h 18.449218 c 0.88,0 1.59961,-0.78976 1.59961,-1.75976 0,-0.97 -0.71961,-1.76172 -1.59961,-1.76172 z m 26.048828,0 c -0.9,0 -1.619141,0.79172 -1.619141,1.76172 0,0.96 0.729141,1.75 1.619141,1.75 v 0.0098 h 19.90039 c 0.9,0 1.619141,-0.78976 1.619141,-1.75976 0,-0.97 -0.729141,-1.76172 -1.619141,-1.76172 z"/>
    <path
            id="path24"
            style="fill:#000000;stroke:none;stroke-width:0.608734"
            d="m 36.436091,77.179062 v 7.044212 h 48.560547 v -7.044212 z"/>
    <path
            id="path22"
            style="fill:#000000;stroke:none"
            d="M 30.580078 56.089844 C 29.480078 56.089844 28.480937 56.519219 27.710938 57.199219 C 27.660938 57.239219 27.620313 57.290078 27.570312 57.330078 C 26.810312 58.100078 26.330313 59.160078 26.320312 60.330078 L 26.320312 111.13086 C 26.320312 112.29086 26.790547 113.34914 27.560547 114.11914 L 27.570312 114.13086 L 27.580078 114.14062 C 28.360078 114.92063 29.420078 115.39062 30.580078 115.39062 L 91.519531 115.39062 C 92.689531 115.39062 93.749531 114.91062 94.519531 114.14062 C 95.289531 113.37063 95.769531 112.31063 95.769531 111.14062 L 95.769531 60.349609 C 95.769531 59.189609 95.299297 58.129375 94.529297 57.359375 L 94.519531 57.349609 L 94.509766 57.339844 C 93.739766 56.569844 92.679531 56.089844 91.519531 56.089844 L 30.580078 56.089844 z M 30.169922 71.310547 C 30.299922 71.330547 30.440078 71.339844 30.580078 71.339844 L 91.529297 71.339844 C 91.669297 71.339844 91.799453 71.330547 91.939453 71.310547 L 91.939453 111.13086 C 91.939453 111.24086 91.880547 111.33992 91.810547 111.41992 C 91.730547 111.49992 91.629531 111.53906 91.519531 111.53906 L 30.580078 111.53906 C 30.460078 111.53906 30.359063 111.49969 30.289062 111.42969 L 30.279297 111.41992 C 30.219297 111.33992 30.169922 111.24086 30.169922 111.13086 L 30.169922 71.310547 z M 33.402344 73.777344 L 87.357422 73.777344 L 33.402344 73.777344 z "/>
    <path
            id="path20"
            style="fill:#000000;stroke:none"
            d="M 113.43945 30.660156 C 112.82945 31.810156 111.96945 32.809609 110.93945 33.599609 L 110.91016 33.619141 C 110.26016 34.119141 109.53953 34.530078 108.76953 34.830078 C 108.79953 35.340078 108.78047 35.849609 108.73047 36.349609 C 109.05047 36.649609 109.35992 36.959063 109.66992 37.289062 C 110.46992 38.149063 111.22992 39.109687 111.91992 40.179688 C 114.32992 43.879687 115.56977 48.969062 115.50977 54.039062 C 115.45977 58.869063 114.23047 63.580156 111.73047 66.910156 C 110.12047 69.060156 107.96984 70.850313 105.33984 72.320312 C 103.98984 73.070312 102.51945 73.730312 100.93945 74.320312 L 100.93945 82.070312 C 103.86945 81.170313 106.55922 80.060703 108.94922 78.720703 C 112.43922 76.770703 115.34914 74.310781 117.61914 71.300781 C 121.09914 66.680781 122.79914 60.399844 122.86914 54.089844 C 122.93914 47.659844 121.29961 41.089922 118.09961 36.169922 C 117.14961 34.719922 116.14031 33.419531 115.07031 32.269531 C 114.54031 31.699531 113.99945 31.170156 113.43945 30.660156 z "/>
    <path
            id="path18"
            style="fill:#000000;stroke:none"
            d="M 59.867188 4.0683594 C 58.023438 3.9871094 56.174844 4.0359375 54.339844 4.2109375 C 47.349844 4.8809375 40.559922 7.4307812 34.919922 11.800781 C 28.889922 16.470781 24.2 23.199453 22 31.939453 C 20.06 32.389453 18.22 32.949141 16.5 33.619141 C 14 34.589141 11.789375 35.769922 9.859375 37.169922 C 8.199375 38.369922 6.7495313 39.730937 5.5195312 41.210938 C 1.7195312 45.770937 -0.04 51.400547 0 57.060547 C 0.04 62.660547 1.8399219 68.280859 5.1699219 72.880859 C 6.4199219 74.610859 7.8903125 76.199609 9.5703125 77.599609 C 11.340313 79.079609 13.349141 80.290469 15.619141 81.230469 C 17.339141 81.940469 19.179688 82.479844 21.179688 82.839844 L 21.179688 75.349609 C 20.209687 75.109609 19.280156 74.809219 18.410156 74.449219 C 16.870156 73.819219 15.499297 72.980703 14.279297 71.970703 C 13.079297 70.970703 12.029141 69.820312 11.119141 68.570312 C 8.6791406 65.200313 7.3600781 61.099063 7.3300781 57.039062 C 7.3000781 53.039062 8.5203906 49.089453 11.150391 45.939453 C 12.000391 44.919453 13.000156 43.980625 14.160156 43.140625 C 15.610156 42.090625 17.270859 41.200469 19.130859 40.480469 C 21.050859 39.730469 23.239453 39.140937 25.689453 38.710938 L 28.189453 38.269531 L 28.669922 35.759766 C 30.199922 27.729766 34.170391 21.669141 39.400391 17.619141 C 43.920391 14.109141 49.389531 12.059531 55.019531 11.519531 C 56.849531 11.339531 58.699297 11.320937 60.529297 11.460938 C 61.139297 10.380937 61.959688 9.4409375 62.929688 8.7109375 L 62.960938 8.6894531 C 63.610938 8.1894531 64.329609 7.7804687 65.099609 7.4804688 C 65.069609 6.9004687 65.099922 6.3297656 65.169922 5.7597656 L 65.179688 5.6992188 C 65.219687 5.3592188 65.289141 5.0292188 65.369141 4.6992188 C 63.549141 4.3592187 61.710938 4.1496094 59.867188 4.0683594 z "/>
    <path
            id="path16"
            style="fill:#000000;stroke:none"
            d="M 88.210938 0.01953125 C 87.090938 -0.13046875 86.050391 0.65929687 85.900391 1.7792969 L 85.470703 4.9101562 C 84.020703 5.0401562 82.599531 5.359375 81.269531 5.859375 L 79.179688 3.109375 C 78.499687 2.209375 77.210547 2.0407031 76.310547 2.7207031 L 72.900391 5.3105469 C 72.000391 5.9905469 71.829766 7.2799219 72.509766 8.1699219 L 74.419922 10.689453 C 73.509922 11.779453 72.729141 13.010078 72.119141 14.330078 L 68.699219 13.859375 C 67.579219 13.709375 66.550625 14.489375 66.390625 15.609375 L 65.810547 19.859375 C 65.650547 20.979375 66.440547 22.019922 67.560547 22.169922 L 70.689453 22.599609 C 70.819453 24.049609 71.140625 25.460781 71.640625 26.800781 L 68.890625 28.890625 C 67.990625 29.570625 67.82 30.859766 68.5 31.759766 L 71.089844 35.169922 C 71.769844 36.069922 73.060937 36.240547 73.960938 35.560547 L 76.480469 33.650391 C 77.570469 34.560391 78.799141 35.339219 80.119141 35.949219 L 79.650391 39.369141 C 79.500391 40.489141 80.280391 41.529688 81.400391 41.679688 L 85.650391 42.259766 C 86.770391 42.409766 87.810937 41.629766 87.960938 40.509766 L 88.390625 37.380859 C 89.850625 37.250859 91.259609 36.929688 92.599609 36.429688 L 94.689453 39.179688 C 95.369453 40.069688 96.660547 40.250312 97.560547 39.570312 L 100.9707 36.980469 C 101.8707 36.300469 102.04914 35.009375 101.36914 34.109375 L 99.449219 31.589844 C 100.36922 30.499844 101.14977 29.279219 101.75977 27.949219 L 105.17969 28.419922 C 106.29969 28.579922 107.34023 27.789922 107.49023 26.669922 L 108.07031 22.419922 C 108.22031 21.299922 107.44031 20.259375 106.32031 20.109375 L 103.18945 19.679688 C 103.05945 18.229688 102.74023 16.810469 102.24023 15.480469 L 104.99023 13.390625 C 105.89023 12.710625 106.06086 11.419531 105.38086 10.519531 L 102.78906 7.109375 C 102.09906 6.209375 100.81016 6.0404688 99.910156 6.7304688 L 97.390625 8.640625 C 96.290625 7.720625 95.070234 6.9400781 93.740234 6.3300781 L 94.210938 2.9101562 C 94.370937 1.7901562 93.580938 0.74960938 92.460938 0.59960938 L 88.210938 0.01953125 z "/></svg>
