<?xml version="1.0" encoding="UTF-8" standalone="no"?>
<svg
   xmlns:dc="http://purl.org/dc/elements/1.1/"
   xmlns:cc="http://creativecommons.org/ns#"
   xmlns:rdf="http://www.w3.org/1999/02/22-rdf-syntax-ns#"
   xmlns:svg="http://www.w3.org/2000/svg"
   xmlns="http://www.w3.org/2000/svg"
   xmlns:sodipodi="http://sodipodi.sourceforge.net/DTD/sodipodi-0.dtd"
   xmlns:inkscape="http://www.inkscape.org/namespaces/inkscape"
   width="397.14999"
   height="397.41101"
   viewBox="0 0 105.07927 105.14833"
   version="1.1"
   id="svg8"
   inkscape:version="1.0.2 (1.0.2+r75+1)"
   sodipodi:docname="web-scraping.svg">
  <defs
     id="defs2" />
  <sodipodi:namedview
     id="base"
     pagecolor="#ffffff"
     bordercolor="#666666"
     borderopacity="1.0"
     inkscape:pageopacity="0.0"
     inkscape:pageshadow="2"
     inkscape:zoom="0.7"
     inkscape:cx="168.03808"
     inkscape:cy="473.71964"
     inkscape:document-units="mm"
     inkscape:current-layer="layer1"
     inkscape:document-rotation="0"
     showgrid="false"
     inkscape:window-width="1920"
     inkscape:window-height="1016"
     inkscape:window-x="0"
     inkscape:window-y="27"
     inkscape:window-maximized="1"
     units="px" />
  <metadata
     id="metadata5">
    <rdf:RDF>
      <cc:Work
         rdf:about="">
        <dc:format>image/svg+xml</dc:format>
        <dc:type
           rdf:resource="http://purl.org/dc/dcmitype/StillImage" />
        <dc:title />
      </cc:Work>
    </rdf:RDF>
  </metadata>
  <g
     inkscape:label="Layer 1"
     inkscape:groupmode="layer"
     id="layer1">
    <path
       style="fill:#000000;stroke-width:0.0808509;stroke:none"
       d="m 50.68034,105.06126 c -2.31096,-0.23686 -4.60229,-1.03348 -6.281,-2.18371 -0.78131,-0.53535 -1.90907,-1.64024 -2.35998,-2.31213 -0.45988,-0.685239 -0.94525,-1.705829 -1.18262,-2.486699 -0.40589,-1.33521 -0.44446,-1.81987 -0.44446,-5.58388 v -3.50099 l -5.59893,-0.0341 c -4.81659,-0.0293 -5.69496,-0.053 -6.28616,-0.1696 -3.138797,-0.61912 -5.618907,-1.86916 -7.775057,-3.91883 -2.66996,-2.53813 -4.25244,-5.81478 -4.59375,-9.51176 -0.0497,-0.53799 -0.0821,-4.39511 -0.0822,-9.76275 l -6e-5,-8.87339 -1.1117,10e-4 c -1.81704,0.002 -3.1557,0.37205 -4.43287,1.22628 -1.17876,0.7884 -2.12879,2.10398 -2.37154,3.28408 -0.0588,0.28576 -0.0881,2.34864 -0.0881,6.19427 0,3.49464 -0.0318,5.93738 -0.0807,6.20133 -0.29876,1.61119 -1.72076,2.97046 -3.37627,3.22732 -2.0547,0.3188 -4.11803995,-1.12873 -4.54575995,-3.18905 -0.0649,-0.31274 -0.0822,-2.27968 -0.0599,-6.81271 0.0349,-7.08707 0.0199,-6.8773 0.62083,-8.68555 1.38042995,-4.15361 4.94188995,-7.46023 9.53509995,-8.85281 1.4516,-0.4401 2.57523,-0.60991 4.35464,-0.65809 l 1.55638,-0.0421 7.2e-4,-6.35655 c 4.1e-4,-3.49611 0.0367,-6.86591 0.0807,-7.48847 0.38727,-5.47733 2.1754,-10.2141 5.44695,-14.42901 0.82294,-1.06023 2.81576,-3.113067 3.8712,-3.987777 C 31.14052,11.660826 38.33689,9.0812064 47.86486,8.3299564 l 0.62062,-0.0489 0.0288,-2.56068 c 0.0277,-2.46471 0.0359,-2.57885 0.21956,-3.04578 0.41964,-1.06684 1.09457,-1.80886997 2.06785,-2.27337997 2.317316,-1.10599 5.012996,0.16842 5.656996,2.67440997 0.0974,0.37917 0.12384,0.98715 0.12384,2.85253 0,1.82778 0.0231,2.37703 0.10106,2.39849 0.0556,0.0153 0.75596,0.0886 1.55638,0.16292 8.56499,0.79503 16.00268,3.4686696 21.18295,7.6146776 1.1398,0.91224 3.04595,2.818227 3.93269,3.932387 2.54307,3.19523 4.23619,6.81941 5.03989,10.78806 0.48163,2.37825 0.47262,2.19466 0.50548,10.3045 l 0.0303,7.48869 1.59259,0.0417 c 2.91977,0.0764 5.25006,0.69566 7.57557,2.01319 3.561954,2.01804 5.886454,5.11275 6.761414,9.00175 0.18004,0.80025 0.18219,0.88343 0.21099,8.14651 0.0193,4.8674 8.1e-4,7.49427 -0.0552,7.80212 -0.29679,1.63398 -1.71205,2.99703 -3.38063,3.25592 -1.62648,0.25236 -3.346114,-0.61233 -4.120234,-2.07179 -0.52271,-0.98547 -0.50784,-0.74268 -0.50784,-8.29259 0,-4.62913 -0.0286,-6.99033 -0.0881,-7.27981 -0.31282,-1.5207 -1.63448,-3.04019 -3.32293,-3.8203 -1.06703,-0.493 -1.72139,-0.62677 -3.27935,-0.6704 l -1.39467,-0.0391 v 9.31686 c 0,9.82072 -0.007,10.05019 -0.37237,11.52059 -0.5596,2.25463 -1.62552,4.3568 -3.11569,6.14468 -1.87011,2.24371 -4.51105,3.95124 -7.30554,4.7235 -1.88855,0.5219 -1.74457,0.51184 -7.85587,0.54902 l -5.59204,0.034 -0.036,3.73395 c -0.0387,4.01762 -0.0519,4.1598 -0.51518,5.55309 -0.79939,2.404299 -2.4747,4.236569 -4.9902,5.457699 -2.3237,1.12803 -5.50529,1.62549 -8.459586,1.32271 z m 4.237056,-8.228269 c 0.79435,-0.21001 1.06564,-0.36605 1.40111,-0.80588 l 0.26395,-0.34606 v -3.34903 -3.34903 H 52.53991 48.49737 v 3.39745 3.39747 l 0.42446,0.42994 c 0.68799,0.69687 1.47491,0.86634 3.82021,0.82271 1.234066,-0.023 1.661866,-0.0618 2.175356,-0.19757 z m 20.30657,-16.02004 c 2.7028,-0.47862 4.81708,-2.45824 5.45142,-5.10424 0.15659,-0.65318 0.16124,-0.96227 0.16179,-10.75866 0,-5.54738 -0.0128,-10.08615 -0.029,-10.08615 -0.0163,0 -0.37101,0.16171 -0.7883,0.35935 -1.40888,0.66731 -2.85655,1.07764 -4.44112,1.25879 -0.53569,0.0612 -7.59767,0.0793 -23.604756,0.0603 l -22.84039,-0.0271 -0.80851,-0.17822 c -1.1322,-0.24958 -2.20326,-0.6115 -3.183787,-1.07583 -0.46151,-0.21856 -0.87082,-0.39737 -0.90957,-0.39737 -0.0397,0 -0.0705,4.3071 -0.0705,9.85322 0,10.70277 -0.004,10.58738 0.44829,11.79322 0.57314,1.52675 1.864497,2.96168 3.311267,3.67943 0.48819,0.24219 1.3089,0.51381 1.85958,0.61544 0.59304,0.10944 44.826676,0.11698 45.443586,0.008 z m 0.72229,-32.56795 c 2.40761,-0.8136 4.01564,-2.54872 4.69946,-5.07089 0.13929,-0.51373 0.1516,-0.90707 0.1516,-4.84423 0,-3.15388 -0.0285,-4.47719 -0.10783,-5.01275 -0.59545,-4.01811 -2.11711,-7.07005 -4.79421,-9.61552 -4.34065,-4.12724 -10.97731,-6.575257 -19.83835,-7.317637 -7.064716,-0.59188 -13.049216,0.10838 -18.393586,2.152267 -6.78327,2.59417 -11.24587,7.04713 -12.822737,12.79502 -0.55698,2.03024 -0.63035,2.82968 -0.63489,6.91777 -0.004,3.96991 0.0215,4.28987 0.45374,5.59328 0.76492,2.30678 2.756357,4.08693 5.086577,4.54688 0.19963,0.0394 10.36327,0.0654 22.99601,0.0588 l 22.638256,-0.0118 z M 35.32775,40.263791 c -1.41707,-0.38109 -2.61046,-1.64778 -2.91122,-3.09001 -0.46323,-2.22134 1.10366,-4.45118 3.36703,-4.79158 2.71996,-0.40909 5.1,2.10319 4.53937,4.79158 -0.30462,1.46073 -1.50151,2.71778 -2.94592,3.094 -0.58731,0.15298 -1.47202,0.15125 -2.04926,-0.004 z m 32.340366,0 c -1.41707,-0.38109 -2.61046,-1.64778 -2.91122,-3.09001 -0.46323,-2.22134 1.10367,-4.45118 3.36703,-4.79158 2.71996,-0.40909 5.1,2.10319 4.53937,4.79158 -0.30462,1.46073 -1.50151,2.71778 -2.94592,3.094 -0.58731,0.15298 -1.47201,0.15125 -2.04926,-0.004 z"
       id="path847" />
  </g>
</svg>
