<?xml version="1.0" encoding="UTF-8" standalone="no"?>
<svg
        xmlns="http://www.w3.org/2000/svg"
        xmlns:xlink="http://www.w3.org/1999/xlink"
        width="100mm"
        height="100mm"
        viewBox="0 0 100 100"
        version="1.1"
        id="svg8"
>
  <defs
     id="defs2">
    <linearGradient
            id="linearGradient853">
      <stop
         style="stop-color:#c30000;stop-opacity:1"
         offset="0"
         id="stop849" />
      <stop
         style="stop-color:#000000;stop-opacity:1"
         offset="1"
         id="stop851" />
    </linearGradient>
    <radialGradient
            xlink:href="#linearGradient853"
       id="radialGradient857"
       cx="53.992573"
       cy="55.903732"
       fx="53.992573"
       fy="55.903732"
       r="32.567947"
       gradientTransform="matrix(1.4825141,0,0,0.81830406,-28.488884,6.3029342)"
    />
  </defs>
  <metadata
     id="metadata5">
    image/svg+xml
  </metadata>
  <g
          id="layer1">
    <path
       style="fill:url(#radialGradient857);fill-opacity:1;stroke:none;stroke-width:0.191012;stroke-opacity:1"
       d="M 46.832801,78.660453 C 45.202768,78.494178 40.538686,77.80049 39.696482,77.599071 34.277591,76.303106 30.844905,75.125038 26.776665,73.165095 18.041233,68.956654 10.621888,62.703543 4.9405736,54.761377 c -0.844596,-1.180698 -1.590158,-2.318532 -1.656805,-2.528519 -0.252779,-0.796435 4.174879,-6.579749 7.8271044,-10.2236 8.099841,-8.08127 18.205674,-13.472378 29.323065,-15.64283 4.387343,-0.856544 5.77284,-0.975471 11.269639,-0.967356 4.394215,0.0065 5.674676,0.07417 7.833842,0.41405 10.784721,1.697679 19.714244,5.59041 27.913832,12.168732 2.675074,2.146143 6.341204,5.805256 8.436804,8.420652 1.81748,2.268278 3.95025,5.32565 3.95025,5.662758 0,0.114643 -0.4874,0.907373 -1.08311,1.761605 -8.5182,12.214881 -20.837504,20.558292 -34.913866,23.645876 -4.030994,0.884177 -6.541642,1.148625 -11.469214,1.208054 -2.626399,0.03168 -5.11909,0.02252 -5.539314,-0.02034 z m 9.75613,-6.96063 C 65.9734,70.788475 75.31541,66.979464 82.877427,60.981228 c 2.270762,-1.801185 5.838459,-5.317229 7.580208,-7.470467 l 1.20302,-1.487231 -0.82768,-1.091415 c -1.524197,-2.009873 -6.64964,-6.965372 -9.085817,-8.784559 -7.058952,-5.271187 -14.996564,-8.513302 -23.798837,-9.720624 -3.20937,-0.440199 -9.905747,-0.433638 -13.025628,0.01275 -8.790711,1.257795 -16.649872,4.484546 -23.644718,9.707865 -2.436177,1.819187 -7.56162,6.774686 -9.085815,8.784558 l -0.827679,1.091415 1.203019,1.487232 c 1.731344,2.140378 5.307448,5.668214 7.525197,7.423628 7.566143,5.988829 16.860207,9.822159 26.071566,10.753195 2.369517,0.239499 8.016219,0.246127 10.424668,0.0123 z M 49.70335,65.393564 c -5.006698,-0.760822 -9.291005,-4.260722 -10.893566,-8.899077 -1.28218,-3.71107 -0.928783,-7.644534 1.001087,-11.142539 0.826472,-1.49803 3.322454,-4.032631 4.856899,-4.93205 4.124619,-2.417656 9.608079,-2.417656 13.674262,0 2.224188,1.322451 4.307737,3.650129 5.44064,6.078115 1.852372,3.969926 1.470291,9.15756 -0.942403,12.795269 -1.972018,2.973284 -4.955834,5.103693 -8.152791,5.820995 -1.649128,0.370015 -3.649462,0.482104 -4.984128,0.279287 z"
       id="path24"
    />
  </g>
</svg>
