<?xml version="1.0" encoding="UTF-8" standalone="no"?>
<svg
   xmlns="http://www.w3.org/2000/svg"
   version="1.1"
   id="Layer_1"
   x="0px"
   y="0px"
   width="122.879px"
   height="118.662px"
   viewBox="0 0 122.879 118.662"
   enable-background="new 0 0 122.879 118.662"
   xml:space="preserve"
><metadata
     id="metadata11">image/svg+xml</metadata><defs
     id="defs9" /><g
     id="g833"
     transform="translate(-2.1962071e-4)"><path
       fill-rule="evenodd"
       clip-rule="evenodd"
       d="m 43.101,54.363 h 4.138 v -8.738 c 0,-4.714 1.93,-8.999 5.034,-12.105 v -0.004 c 3.105,-3.105 7.392,-5.034 12.108,-5.034 4.714,0 8.999,1.929 12.104,5.034 l 0.004,0.004 c 3.104,3.105 5.034,7.392 5.034,12.104 v 8.738 l 3.297,10e-4 c 0.734,0 1.335,0.601 1.335,1.335 v 28.203 c 0,0.734 -0.602,1.335 -1.336,1.335 H 43.101 c -0.734,0 -1.336,-0.602 -1.336,-1.335 V 55.698 c 0,-0.734 0.601,-1.335 1.336,-1.335 z M 16.682,22.204 c -1.781,2.207 -3.426,4.551 -5.061,7.457 -5.987,10.645 -8.523,22.731 -7.49,34.543 1.01,11.537 5.432,22.827 13.375,32.271 2.853,3.392 5.914,6.382 9.132,8.968 11.112,8.935 24.276,13.341 37.405,13.216 13.134,-0.125 26.209,-4.784 37.145,-13.981 3.189,-2.682 6.179,-5.727 8.915,-9.13 6.396,-7.957 10.512,-17.29 12.071,-27.138 1.532,-9.672 0.595,-19.829 -3.069,-29.655 C 115.618,29.4 110.291,21.07 103.33,14.549 96.695,8.333 88.593,3.755 79.196,1.483 76.253,0.771 73.257,0.306 70.205,0.109 c -3.062,-0.197 -6.193,-0.131 -9.401,0.224 -2.011,0.222 -3.459,2.03 -3.238,4.041 0.222,2.01 2.03,3.459 4.04,3.237 2.783,-0.308 5.495,-0.366 8.141,-0.195 2.654,0.171 5.23,0.568 7.731,1.174 8.106,1.959 15.104,5.914 20.838,11.288 6.138,5.751 10.847,13.125 13.941,21.427 3.212,8.613 4.035,17.505 2.696,25.959 -1.36,8.589 -4.957,16.739 -10.553,23.699 -2.469,3.071 -5.121,5.78 -7.912,8.127 -9.591,8.067 -21.031,12.153 -32.502,12.263 C 52.513,111.462 40.985,107.591 31.222,99.743 28.327,97.415 25.601,94.76 23.093,91.777 16.176,83.553 12.322,73.685 11.438,63.575 10.53,53.2 12.755,42.587 18.01,33.244 c 1.586,-2.82 3.211,-5.071 5.013,-7.241 l 0.533,14.696 c 0.071,2.018 1.765,3.596 3.782,3.524 2.017,-0.072 3.596,-1.765 3.524,-3.782 l -0.85,-23.419 c -0.071,-2.019 -1.765,-3.596 -3.782,-3.525 -0.126,0.005 -0.25,0.016 -0.372,0.032 V 13.526 L 3.157,16.715 c -2.001,0.277 -3.399,2.125 -3.122,4.126 0.276,2.002 2.124,3.4 4.126,3.123 z m 37.217,32.159 h 20.963 v -8.834 c 0,-2.883 -1.18,-5.504 -3.077,-7.403 l -0.002,0.001 c -1.899,-1.899 -4.521,-3.08 -7.402,-3.08 -2.883,0 -5.504,1.18 -7.404,3.078 -1.898,1.899 -3.077,4.521 -3.077,7.404 v 8.834 z m 10.566,15.432 2.116,9.764 -5.799,0.024 1.701,-9.895 c -1.584,-0.509 -2.733,-1.993 -2.733,-3.747 0,-2.171 1.76,-3.931 3.932,-3.931 2.17,0 3.931,1.76 3.931,3.931 -0.001,1.904 -1.352,3.492 -3.148,3.854 z"
       id="path857"
       style="fill:#040404;fill-opacity:1" /><path
       id="path867"
       style="fill:#026500;fill-opacity:1"
       d="m 64.380859,28.482422 c -4.716,0 -9.002422,1.928203 -12.107421,5.033203 v 0.0039 C 49.169437,36.625531 47.238281,40.911 47.238281,45.625 v 8.738281 h -4.136719 c -0.734999,0 -1.335937,0.599985 -1.335937,1.333985 v 28.203125 c 0,0.733 0.601937,1.335937 1.335937,1.335937 h 41.716797 c 0.734,0 1.335938,-0.601937 1.335938,-1.335937 V 55.697266 c 0,-0.734 -0.599984,-1.333985 -1.333985,-1.333985 l -3.296874,-0.002 v -8.738281 c 0,-4.712 -1.931157,-8.998516 -5.035157,-12.103516 l -0.0039,-0.0039 c -3.105,-3.105 -7.389516,-5.033203 -12.103516,-5.033203 z m 0,6.564453 c 2.881,0 5.503344,1.181078 7.402344,3.080078 h 0.002 c 1.897,1.899 3.076172,4.519344 3.076172,7.402344 v 8.833984 H 53.900391 v -8.833984 c 0,-2.883 1.178171,-5.505297 3.076171,-7.404297 1.9,-1.898 4.521297,-3.078125 7.404297,-3.078125 z m -0.699218,26.962891 c 2.17,0 3.93164,1.76064 3.93164,3.93164 -0.001,1.904 -1.352437,3.491516 -3.148437,3.853516 l 2.115234,9.763672 -5.798828,0.02344 1.701172,-9.894531 C 60.898422,69.1785 59.75,67.695406 59.75,65.941406 c 0,-2.171 1.759641,-3.93164 3.931641,-3.93164 z" /></g></svg>
