<?xml version="1.0" encoding="UTF-8" standalone="no"?>
<svg
        xmlns="http://www.w3.org/2000/svg"
        id="svg3287"
        viewBox="0 0 400.00001 399.99999"
        version="1.1"
        width="400"
        height="400"
>
  <defs
     id="defs17" />
  <g
     id="layer1"
     transform="translate(-180.31,-244.48)">
    <g
       id="g876"
       transform="matrix(0.76287718,0,0,0.76287718,79.127208,57.971786)">
      <path
         id="rect2985"
         style="fill:#040404;fill-opacity:1;stroke-width:25.8"
         d="m 333.27,244.48 c -9.0304,0 -16.342,10.519 -16.342,19.55 v 7.7384 c 0,6.3886 3.685,11.885 9.0111,14.56 -0.0798,1.0586 -0.15314,2.1275 -0.15314,3.2074 v 153.8 c -2.4178,4.5548 -4.7734,9.2986 -7.3312,14 l -132.17,239.08 c -21.284,39.127 19.219,72.395 43.071,72.395 h 330.72 c 23.851,0 64.789,-32.472 43.071,-72.395 l -132.16,-239.08 c -2.5578,-4.7019 -4.9134,-9.4456 -7.3312,-14 v -153.8 c 0,-1.0798 -0.0733,-2.1487 -0.15314,-3.2074 5.3262,-2.6758 9.0111,-8.1719 9.0111,-14.56 V 264.03 c 0,-9.0306 -7.2608,-19.55 -16.291,-19.55 z" />
      <g
         id="g3213"
         style="fill:#e5e5e5;fill-opacity:1"
         transform="matrix(1.6291,0,0,1.6291,-1390.6,-814.74)">
        <path
           id="path3201"
           style="fill:#e5e5e5;fill-opacity:1;stroke-width:25.8"
           d="m 1080.3,768.8 h 31.307 c 12.456,0 16.531,11.607 22.483,22.611 l 70.701,130.71 c 14.28,26.399 -10.028,38.012 -22.484,38.012 h -172.71 c -12.456,0 -35.208,-14.489 -22.483,-38.012 l 70.701,-130.71 c 5.9522,-11.004 10.028,-22.611 22.483,-22.611 z" />
        <rect
           id="rect3203"
           style="fill:#e5e5e5;fill-opacity:1;stroke-width:25.8"
           ry="0"
           height="117.7"
           width="64.230003"
           y="670.48999"
           x="1063.8" />
        <rect
           id="rect3205"
           style="fill:#e5e5e5;fill-opacity:1;stroke-width:25.8"
           transform="rotate(-90)"
           ry="4.3000002"
           height="75.528999"
           width="13.263"
           y="1058.1"
           x="-671.96002" />
      </g>
      <path
         id="path3201-1"
         d="m 461.99,505.91 91.927,174.75 c 20.125,38.256 -14.442,54.746 -32.381,54.746 h -248.74 c -17.939,0 -50.781,-20.907 -32.381,-54.746 l 90.127,-165.75 c 79.68,31.256 108.66,-55.62 131.45,-8.999 z"
         style="fill:#001761;fill-opacity:1;stroke-width:25.8"
      />
      <g
         id="g852"
         style="fill:#c1d0ff;fill-opacity:1"
         transform="matrix(2.7506046,0,0,2.7506046,-2666.2495,-1655.879)">
        <circle
           id="path3252"
           style="fill:#c1d0ff;fill-opacity:1;stroke-width:4.82159"
           cx="1124.9349"
           cy="805.20874"
           r="8.3682728" />
        <circle
           id="path3254"
           style="fill:#c1d0ff;fill-opacity:1;stroke-width:3.83768"
           cx="1124.9349"
           cy="805.20874"
           r="8.3682728" />
        <circle
           id="path3256"
           style="fill:#c1d0ff;fill-opacity:1;stroke-width:2.0729"
           cx="1124.9349"
           cy="805.20874"
           r="8.3682728" />
      </g>
      <rect
         id="rect3264"
         style="fill:#000000"
         ry="7.5398998"
         height="164.10001"
         width="15.08"
         y="281.54001"
         x="413.88" />
      <g
         id="g847"
         style="fill:#c1d0ff;fill-opacity:1"
         transform="matrix(3.2040341,0,0,3.2040341,-3268.1138,-1964.2056)">
        <circle
           id="circle841"
           style="fill:#c1d0ff;fill-opacity:1;stroke-width:4.82159"
           cx="1124.9349"
           cy="805.20874"
           r="8.3682728" />
        <circle
           id="circle843"
           style="fill:#c1d0ff;fill-opacity:1;stroke-width:3.83768"
           cx="1124.9349"
           cy="805.20874"
           r="8.3682728" />
        <circle
           id="circle845"
           style="fill:#c1d0ff;fill-opacity:1;stroke-width:2.0729"
           cx="1124.9349"
           cy="805.20874"
           r="8.3682728" />
      </g>
      <g
         id="g855"
         style="fill:#c1d0ff;fill-opacity:1"
         transform="matrix(5.3013669,0,0,5.3013669,-5540.0217,-3604.1781)">
        <circle
           id="circle849"
           style="fill:#c1d0ff;fill-opacity:1;stroke-width:4.82159"
           cx="1124.9349"
           cy="805.20874"
           r="8.3682728" />
        <circle
           id="circle851"
           style="fill:#c1d0ff;fill-opacity:1;stroke-width:3.83768"
           cx="1124.9349"
           cy="805.20874"
           r="8.3682728" />
        <circle
           id="circle853"
           style="fill:#c1d0ff;fill-opacity:1;stroke-width:2.0729"
           cx="1124.9349"
           cy="805.20874"
           r="8.3682728" />
      </g>
    </g>
  </g>
  <metadata
     id="metadata14">
    image/svg+xml
    Openclipart
  </metadata>
</svg>
