<?xml version="1.0" encoding="UTF-8" standalone="no"?>
<svg
        xmlns="http://www.w3.org/2000/svg"
        xmlns:xlink="http://www.w3.org/1999/xlink"
        width="100"
        height="100"
        viewBox="0 0 100 100"
        version="1.1"
        id="svg20"
>
  <metadata
     id="metadata26">
    image/svg+xml
  </metadata>
  <defs
     id="defs24">
    <linearGradient
            id="linearGradient870">
      <stop
         style="stop-color:#06fe00;stop-opacity:1"
         offset="0"
         id="stop866" />
      <stop
         style="stop-color:#ff0404;stop-opacity:1"
         offset="1"
         id="stop868" />
    </linearGradient>
    <linearGradient
            xlink:href="#linearGradient870"
       id="linearGradient872"
       x1="6.078238"
       y1="49.438866"
       x2="93.829956"
       y2="50.808292"
       gradientUnits="userSpaceOnUse" />
    <linearGradient
            xlink:href="#linearGradient870"
       id="linearGradient880"
       x1="6.4980569"
       y1="39.000172"
       x2="93.5"
       y2="39.000172"
       gradientUnits="userSpaceOnUse" />
  </defs>
  <path
     fill="#ededed"
     d="M 50,0 C 22.386,0 0,22.385 0,49.999 0,77.614 22.386,100 50,100 77.614,100 100,77.614 100,49.999 100,22.385 77.614,0 50,0 Z"
     id="path2"
     style="fill:#191919;fill-opacity:1" />
  <path
     fill="#bebebe"
     d="m 61,76.999 v 6 h -6 v -6 h -2 v 6 h -6 v -6 h -2 v 6 h -6 v -6 h -2 v 8 h 26 v -8 z"
     id="path6"
     style="fill:#f3f3f3;fill-opacity:1" />
  <g
     id="g842"
     style="stroke:url(#linearGradient880);fill:url(#linearGradient872);fill-opacity:1;stroke-width:3;stroke-miterlimit:4;stroke-dasharray:none;stroke-opacity:1">
    <path
       fill="#efc75e"
       d="M 47.031,8.094 C 31.828,9.138 18.741,18.445 12.289,31.528 l 5.424,2.656 C 23.48,22.538 35.382,14.371 49.046,14.018 c 0.32,-0.008 0.636,0 0.954,0 V 8.004 c -0.983,0 -1.971,0.021 -2.969,0.09 z"
       id="path8"
       style="fill:url(#linearGradient872);fill-opacity:1;stroke:url(#linearGradient880);stroke-opacity:1;stroke-width:3;stroke-miterlimit:4;stroke-dasharray:none" />
    <path
       fill="#e2574c"
       d="m 85.985,49.988 c 0,5.471 -1.437,10.873 -3.686,15.61 -0.689,1.452 -0.172,3.182 1.235,3.976 l 0.054,0.03 c 1.564,0.882 3.537,0.234 4.305,-1.381 C 90.523,62.69 92,56.38 92,49.988 92,42.946 90.257,36.316 87.193,30.488 l -5.326,2.794 c 2.624,4.993 4.118,10.674 4.118,16.706 z"
       id="path10"
       style="fill:url(#linearGradient872);fill-opacity:1;stroke:url(#linearGradient880);stroke-opacity:1;stroke-width:3;stroke-miterlimit:4;stroke-dasharray:none" />
    <path
       fill="#3db39e"
       d="m 16.407,69.613 0.054,-0.029 c 1.408,-0.775 1.924,-2.467 1.234,-3.887 C 15.256,60.676 13.809,54.577 14.037,48.593 14.246,43.1 15.723,37.912 18.167,33.3 L 12.811,30.49 C 10.241,35.357 8.6,40.78 8.137,46.519 7.518,54.187 9,61.887 12.102,68.263 c 0.767,1.578 2.74,2.213 4.305,1.35 z"
       id="path12"
       style="fill:url(#linearGradient872);fill-opacity:1;stroke-width:3;stroke-miterlimit:4;stroke-dasharray:none;stroke:url(#linearGradient880);stroke-opacity:1" />
    <path
       fill="#f4b459"
       d="m 50,8.004 v 6.014 c 14.174,10e-4 26.436,8.185 32.301,20.095 l 5.392,-2.652 C 80.846,17.562 66.542,8.007 50,8.004 Z"
       id="path14"
       style="fill:url(#linearGradient872);fill-opacity:1;stroke-width:3;stroke-miterlimit:4;stroke-dasharray:none;stroke:url(#linearGradient880);stroke-opacity:1" />
  </g>
  <path
     fill="#324d5b"
     d="M 76.559,22.014 77.986,23.442 42.289,61.993 38.006,57.71 Z"
     id="path16"
     style="fill:#f3f3f3;fill-opacity:1;stroke-width:2.6;stroke-miterlimit:4;stroke-dasharray:none;stroke:#f3f3f3;stroke-opacity:1" />
  <path
     fill="#1e2d36"
     d="m 50,44.999 c -2.762,0 -5,2.238 -5,5 0,2.762 2.238,5 5,5 2.762,0 5,-2.238 5,-5 0,-2.762 -2.238,-5 -5,-5 z"
     id="path18"
     style="fill:#191919;fill-opacity:1;stroke:#ffffff;stroke-opacity:1;stroke-width:2.1;stroke-miterlimit:4;stroke-dasharray:none" />
</svg>
