<?xml version="1.0" encoding="UTF-8" standalone="no"?>
<svg
        xmlns="http://www.w3.org/2000/svg"
        width="100mm"
        height="100mm"
        viewBox="0 0 100 100"
        version="1.1"
        id="svg8"
>
  <defs
     id="defs2" />
  <metadata
     id="metadata5">
    image/svg+xml
  </metadata>
  <g
          id="g922"
          transform="matrix(7.1570923,0,0,7.1570923,-302.31636,-379.00768)">
    <path
            style="fill:#a98fbb;stroke-width:0.0323221"
            d="m 45.824229,66.893777 c -0.30772,-0.0448 -0.81558,-0.21567 -1.14826,-0.38629 -0.99752,-0.51158 -1.736955,-1.43955 -2.024924,-2.54122 -0.114967,-0.43982 -0.142175,-1.1892 -0.05985,-1.64834 0.144547,-0.80615 0.54225,-1.56621 1.112594,-2.1263 0.10805,-0.10611 0.19645,-0.20626 0.19645,-0.22255 0,-0.0163 -0.10648,-0.14766 -0.23661,-0.29191 -0.34609,-0.38363 -0.488854,-0.57491 -0.649905,-0.87078 -0.330029,-0.60629 -0.478484,-1.20399 -0.479075,-1.92879 -8.31e-4,-1.02366 0.361592,-1.93521 1.0682,-2.68666 1.4035,-1.49258 3.74925,-1.65405 5.34307,-0.36779 0.11014,0.0889 0.21917,0.17564 0.24229,0.19278 0.0298,0.0221 0.0779,0.001 0.16482,-0.0721 0.80317,-0.67553 1.64633,-0.98982 2.64391,-0.98551 1.95979,0.008 3.57325,1.40638 3.88097,3.36252 0.0635,0.40343 0.0498,0.97923 -0.0322,1.35956 -0.16288,0.75494 -0.49203,1.37626 -1.05249,1.98674 l -0.26127,0.28459 0.24699,0.26489 c 0.30516,0.32728 0.48713,0.5787 0.67359,0.93065 0.79931,1.50866 0.54879,3.33424 -0.62668,4.56674 -0.5785,0.60657 -1.24323,0.97584 -2.07856,1.15469 -0.28144,0.0602 -0.39266,0.0669 -0.87572,0.0527 -0.4549,-0.0134 -0.60978,-0.0311 -0.87053,-0.0996 -0.56978,-0.14956 -1.16449,-0.45719 -1.55649,-0.80512 -0.0951,-0.0844 -0.18943,-0.15353 -0.20953,-0.15353 -0.0201,0 -0.15877,0.0984 -0.30816,0.21858 -0.48174,0.38769 -1.11633,0.67516 -1.75991,0.79725 -0.29155,0.0553 -1.01016,0.0632 -1.34267,0.0148 z"
            id="path853" />
    <path
            style="fill:#9996a6;stroke-width:0.0323221"
            d="m 46.577909,62.639017 c -1.47668,-1.47847 -2.61701,-2.64505 -2.63028,-2.69082 -0.0129,-0.0444 -0.14186,-0.20444 -0.28662,-0.35554 -0.986295,-1.02954 -1.334521,-2.51639 -0.904614,-3.8625 0.447545,-1.40134 1.593844,-2.40281 3.050514,-2.6651 0.75059,-0.13516 1.49496,-0.0509 2.19824,0.24873 0.38928,0.16586 0.62563,0.31675 1.14759,0.73262 0.0771,0.0614 0.0778,0.0613 0.19293,-0.0323 0.39445,-0.32076 0.58613,-0.45098 0.87355,-0.59342 0.54716,-0.27116 0.98023,-0.38236 1.60284,-0.41153 1.35414,-0.0635 2.65615,0.6001 3.40472,1.73519 0.18907,0.28671 0.28137,0.47683 0.41582,0.85654 0.18037,0.50938 0.20078,0.64575 0.19839,1.32521 -0.002,0.556 -0.0101,0.64318 -0.0858,0.92118 -0.18312,0.67226 -0.51715,1.26889 -1.00502,1.79512 -0.13248,0.1429 -0.24617,0.28423 -0.25265,0.31407 -0.0143,0.0658 -5.22531,5.29258 -5.2766,5.29258 -0.0199,0 -1.20923,-1.1745 -2.643,-2.61001 z"
            id="path851" />
    <path
            style="fill:#6e5e84;stroke-width:0.0323221"
            d="m 46.590979,62.590457 c -1.42657,-1.42666 -2.59377,-2.61585 -2.59377,-2.64263 0,-0.0472 5.18216,-5.26814 5.22896,-5.26814 0.0452,0 5.24341,5.22059 5.24341,5.26601 0,0.0619 -5.17434,5.23869 -5.23624,5.23869 -0.0267,0 -1.21578,-1.16727 -2.64236,-2.59393 z"
            id="path849" />
  </g>
</svg>
