<?xml version="1.0" encoding="UTF-8" standalone="no"?>
<svg
        xmlns="http://www.w3.org/2000/svg"
        width="2000"
        height="1135.593"
        viewBox="0 0 204.8 116.26309"
        version="1.1"
        id="svg36"
>
    <metadata
            id="metadata42">
        image/svg+xml
    </metadata>
    <defs
            id="defs40"/>
    <g
            id="g920"
            transform="matrix(0.80204381,0,0,0.80204381,-0.12173879,-26.598368)">
        <path
                id="path2"
                style="fill-rule:evenodd;stroke-width:1.00113"
                d="m 120.33337,33.149749 v 22.89166 H 74.549787 V 78.933312 H 51.657884 V 102.3355 h -19.57373 l -0.324465,3.46059 c -1.075272,11.55513 0.51272,23.11559 5.286002,33.67142 l 2.054646,4.18726 0.233658,0.39378 c 14.122063,23.98091 38.919558,34.0867 65.949985,34.0867 52.31828,0 95.46562,-23.37229 115.28519,-72.73716 13.24501,0.69388 26.793,-3.22494 33.27343,-15.871071 l 1.65688,-3.231355 -3.14498,-1.812571 c -7.66135,-4.422683 -17.86703,-5.026873 -26.56002,-2.469916 -1.07017,-9.239594 -7.1422,-17.343231 -14.36126,-23.142616 l -2.8679,-2.30558 -2.40525,2.781313 c -4.83353,5.590533 -6.27667,14.887932 -5.61467,22.031021 0.48437,5.251008 2.13238,10.575103 5.36373,14.794025 -2.45374,1.475926 -5.24236,2.651528 -7.73,3.495135 -5.06164,1.715345 -10.55959,2.669025 -15.90562,2.669025 H 170.69777 V 78.933312 H 147.80609 V 33.149749 Z"/>
        <path
                d="m 221.97324,87.590571 c 1.53564,-11.929499 -7.39245,-21.299247 -12.92874,-25.748261 -6.38023,7.376452 -7.37126,26.708357 2.63805,34.847435 -5.58646,4.961615 -17.35678,9.458635 -29.40934,9.458635 H 35.562168 c -1.17011,12.58139 1.038175,24.16743 6.081976,34.08373 l 1.669732,3.05332 a 56.600043,56.600043 0 0 0 3.458854,5.19002 c 6.031798,0.38714 11.593174,0.52124 16.680881,0.40877 h 0.0019 c 9.998493,-0.22061 18.156604,-1.40153 24.339587,-3.54407 a 1.7629949,1.7629949 0 0 1 1.15497,3.32995 c -0.821889,0.2855 -1.680546,0.55153 -2.564942,0.80675 h -0.0031 c -4.868393,1.39072 -10.089333,2.32551 -16.824928,2.741 0.40013,0.007 -0.417434,0.0648 -0.419596,0.0648 -0.229264,0.015 -0.516925,0.0433 -0.748352,0.0648 -2.651023,0.15139 -5.512278,0.17302 -8.437553,0.17302 -3.199743,0 -6.350388,-0.0648 -9.873264,-0.24007 l -0.08651,0.0648 c 12.223865,13.73938 31.337538,21.9799 55.296677,21.9799 50.70535,0 93.71392,-22.47758 112.75947,-72.93961 13.51141,1.3864 26.49704,-2.059042 32.40382,-13.590358 -9.40868,-5.429224 -21.50839,-3.698283 -28.4752,-0.194658"
                fill="#22a0c8"
                id="path4"
                style="fill-rule:evenodd;stroke-width:1.00113"/>
        <path
                d="m 221.97324,87.590571 c 1.53564,-11.929499 -7.39245,-21.299247 -12.92874,-25.748261 -6.38023,7.376452 -7.37126,26.708357 2.63805,34.847435 -5.58646,4.961615 -17.35678,9.458635 -29.40934,9.458635 H 44.249965 c -0.599114,19.26789 6.551534,33.89341 19.201916,42.73541 h 0.0029 c 9.998493,-0.22061 18.156604,-1.40154 24.339586,-3.54407 a 1.7629949,1.7629949 0 0 1 1.15497,3.32995 c -0.821888,0.2855 -1.680546,0.55153 -2.564941,0.80674 h -0.0031 c -4.868393,1.39073 -10.537911,2.44578 -17.273506,2.86126 -0.0019,0 -0.173029,-0.1514 -0.173029,-0.1514 17.25642,8.85196 42.277739,8.81995 70.965109,-2.19942 32.16657,-12.35796 62.09933,-35.90075 82.98395,-62.828203 -0.31361,0.151401 -0.62074,0.287661 -0.91705,0.436899"
                fill="#37b1d9"
                id="path6"
                style="fill-rule:evenodd;stroke-width:1.00113"/>
        <path
                d="m 35.8375,121.43487 c 0.910566,6.73949 2.883316,13.04964 5.806644,18.79724 l 1.669732,3.05332 a 56.495924,56.495924 0 0 0 3.458854,5.19002 c 6.03288,0.38714 11.594255,0.52124 16.682829,0.40877 9.998492,-0.22061 18.156604,-1.40153 24.339586,-3.54407 a 1.7629949,1.7629949 0 0 1 1.15497,3.32995 c -0.821889,0.2855 -1.680546,0.55153 -2.564942,0.80675 h -0.0031 c -4.868393,1.39072 -10.507848,2.38564 -17.243443,2.8022 -0.231426,0.0138 -0.633719,0.0169 -0.867309,0.0217 -2.649077,0.1514 -5.481133,0.24008 -8.407489,0.24008 -3.198662,0 -6.470427,-0.0648 -9.991356,-0.24008 12.223865,13.7396 31.45563,22.00997 55.414764,22.00997 43.40914,0 81.17579,-16.4767 103.09556,-52.88184 H 35.839663"
                fill="#1b81a5"
                id="path8"
                style="fill-rule:evenodd;stroke-width:1.00113"/>
        <path
                d="m 45.57061,121.43487 c 2.594789,11.83325 8.830978,21.12276 17.884083,27.44892 9.998493,-0.22061 18.156605,-1.40154 24.339587,-3.54407 a 1.7629949,1.7629949 0 0 1 1.15497,3.32995 c -0.821889,0.2855 -1.680546,0.55153 -2.564942,0.80674 h -0.0031 c -4.868393,1.39073 -10.627022,2.38565 -17.363482,2.80222 17.255555,8.85001 42.204624,8.72283 70.890054,-2.29567 17.35375,-6.66746 34.05561,-16.59286 49.03952,-28.54723 H 45.571259"
                fill="#1d91b4"
                id="path10"
                style="fill-rule:evenodd;stroke-width:1.00113"/>
        <path
                d="M 55.474802,82.747916 H 75.315197 V 102.58853 H 55.474802 Z m 1.652429,1.654592 h 1.565914 v 16.533802 h -1.565914 z m 2.943227,0 h 1.628637 v 16.533802 h -1.628637 z m 3.005518,0 h 1.628637 v 16.533802 h -1.628637 z m 3.007463,0 h 1.628638 v 16.533802 h -1.628638 z m 3.006383,0 h 1.628638 v 16.533802 h -1.628638 z m 3.005301,0 h 1.565914 V 100.93631 H 72.095123 Z M 78.366134,59.8568 H 98.20761 V 79.696113 H 78.365269 V 59.8568 Z m 1.654593,1.654592 h 1.565914 v 16.532725 h -1.565914 z m 2.943442,0 h 1.628638 V 78.044117 H 82.966332 V 61.511392 Z m 3.005302,0 h 1.628638 v 16.532725 h -1.628638 z m 3.006382,0 h 1.628637 v 16.532725 h -1.628637 z m 3.006383,0 h 1.628637 v 16.532725 h -1.628637 z m 3.005518,0 h 1.568077 v 16.532725 h -1.568077 z"
                fill="#23a3c2"
                id="path12"
                style="fill-rule:evenodd;stroke-width:1.00113"/>
        <path
                d="M 78.366567,82.747916 H 98.208043 V 102.58853 H 78.365702 V 82.747916 Z m 1.654592,1.654592 h 1.565914 v 16.533802 h -1.565914 z m 2.943443,0 h 1.628637 V 100.93631 H 82.966765 V 84.402508 Z m 3.005302,0 h 1.628637 v 16.533802 h -1.628637 z m 3.006382,0 h 1.628637 v 16.533802 h -1.628637 z m 3.006382,0 h 1.628638 v 16.533802 h -1.628638 z m 3.005518,0 h 1.568077 v 16.533802 h -1.568077 z"
                fill="#34bbde"
                id="path14"
                style="fill-rule:evenodd;stroke-width:1.00113"/>
        <path
                d="m 101.25963,82.747916 h 19.8404 v 19.840614 h -19.8404 z m 1.65243,1.654592 h 1.56375 v 16.533802 h -1.56375 z m 2.94323,0 h 1.62864 v 16.533802 h -1.62864 z m 3.00638,0 h 1.62863 v 16.533802 h -1.62863 z m 3.00638,0 h 1.62864 v 16.533802 h -1.62864 z m 3.00552,0 h 1.6308 v 16.533802 h -1.6308 z m 3.00638,0 h 1.56592 v 16.533802 h -1.56592 z"
                fill="#23a3c2"
                id="path16"
                style="fill-rule:evenodd;stroke-width:1.00113"/>
        <path
                d="m 101.25963,59.856151 h 19.8404 v 19.839313 h -19.8404 z m 1.65243,1.654592 h 1.56375 v 16.532725 h -1.56375 z m 2.94323,0 h 1.62864 v 16.532725 h -1.62864 z m 3.00638,0 h 1.62863 v 16.532725 h -1.62863 z m 3.00638,0 h 1.62864 v 16.532725 h -1.62864 z m 3.00552,0 h 1.6308 v 16.532725 h -1.6308 z m 3.00638,0 h 1.56592 v 16.532725 h -1.56592 z m 6.27101,21.238039 h 19.84061 v 19.840608 h -19.84061 z m 1.65459,1.654591 h 1.56591 v 16.533807 h -1.56591 z m 2.94345,0 h 1.62864 V 100.93718 H 128.749 Z m 3.00529,0 h 1.62865 v 16.533807 h -1.62865 z m 3.00639,0 h 1.62864 v 16.533807 h -1.62864 z m 3.00639,0 h 1.62863 v 16.533807 h -1.62863 z m 3.00637,0 h 1.56592 v 16.533807 h -1.56592 z"
                fill="#34bbde"
                id="path18"
                style="fill-rule:evenodd;stroke-width:1.00113"/>
        <path
                d="m 124.15139,59.856151 h 19.84062 v 19.839313 h -19.84062 z m 1.65459,1.654592 h 1.56592 v 16.532725 h -1.56592 z m 2.94345,0 h 1.62864 v 16.532725 h -1.62864 z m 3.0053,0 h 1.62864 v 16.532725 h -1.62864 z m 3.00639,0 h 1.62863 v 16.532725 h -1.62863 z m 3.00638,0 h 1.62864 v 16.532725 h -1.62864 z m 3.00638,0 h 1.56591 v 16.532725 h -1.56591 z"
                fill="#23a3c2"
                id="path20"
                style="fill-rule:evenodd;stroke-width:1.00113"/>
        <path
                d="m 124.15139,36.963088 h 19.84062 v 19.842557 h -19.84062 z m 1.65459,1.65243 h 1.56592 v 16.534671 h -1.56592 V 38.614436 Z m 2.94345,0 h 1.62864 v 16.534671 h -1.62864 V 38.614436 Z m 3.0053,0 h 1.62864 v 16.534671 h -1.62864 V 38.614436 Z m 3.00639,0 h 1.62863 v 16.534671 h -1.62863 V 38.614436 Z m 3.00638,0 h 1.62864 V 55.150189 H 137.7675 V 38.614436 Z m 3.00638,0 h 1.56591 v 16.534671 h -1.56591 V 38.614436 Z"
                fill="#34bbde"
                id="path22"
                style="fill-rule:evenodd;stroke-width:1.00113"/>
        <path
                d="m 147.04337,82.747916 h 19.8404 v 19.840614 h -19.8404 z m 1.65243,1.654592 h 1.56592 v 16.533802 h -1.56592 z m 2.94345,0 h 1.62864 v 16.533802 h -1.62864 z m 3.00746,0 h 1.62864 v 16.533802 h -1.62864 z m 3.0053,0 h 1.62864 v 16.533802 h -1.62864 z m 3.00747,0 h 1.62864 v 16.533802 h -1.62864 z m 3.0053,0 h 1.56591 v 16.533802 h -1.56591 z"
                fill="#23a3c2"
                id="path24"
                style="fill-rule:evenodd;stroke-width:1.00113"/>
        <path
                d="m 96.965693,134.75574 a 5.474194,5.474194 0 1 1 -0.0019,10.94756 5.474194,5.474194 0 0 1 0.0019,-10.94756"
                fill="#d3ecec"
                id="path26"
                style="fill-rule:evenodd;stroke-width:1.00113"/>
        <path
                d="m 96.965693,136.30868 c 0.499623,0 0.977616,0.0865 1.41884,0.26603 a 1.5998101,1.5998101 0 0 0 0.798097,2.98345 c 0.605599,0 1.13118,-0.33523 1.4037,-0.8327 a 3.9194349,3.9194349 0 1 1 -3.621069,-2.41657 M 0.15173883,123.41324 H 254.76682 c -5.54321,-1.40586 -17.53975,-3.30572 -15.5616,-10.57208 -10.08133,11.66519 -34.39193,8.18428 -40.52777,2.43278 -6.83184,9.90939 -46.60693,6.14211 -49.38102,-1.57888 -8.56559,10.05257 -35.10676,10.05257 -43.67235,0 -2.77605,7.71991 -42.550052,11.48719 -49.382975,1.57673 -6.134751,5.75235 -30.444274,9.23327 -40.525821,-2.43085 1.979022,7.26528 -10.0181752,9.16535 -15.56354517,10.57209"
                fill="#364548"
                id="path28"
                style="fill-rule:evenodd;stroke-width:1.00113"/>
        <path
                d="m 111.51507,174.1984 c -13.555323,-6.43215 -20.994715,-15.17704 -25.134438,-24.72199 -5.035583,1.43614 -11.087497,2.3558 -18.120485,2.7503 -2.648861,0.1514 -5.436146,0.22494 -8.359474,0.22494 -3.37169,0 -6.924629,-0.10814 -10.654922,-0.29631 12.431067,12.42393 27.723389,21.98877 56.039399,22.1631 2.08934,0 4.1646,-0.0433 6.22992,-0.10815"
                fill="#bdd9d7"
                id="path30"
                style="fill-rule:evenodd;stroke-width:1.00113"/>
        <path
                d="m 91.415349,158.28447 c -1.875204,-2.54591 -3.694174,-5.74544 -5.031689,-8.81 -5.035583,1.43831 -11.089443,2.35774 -18.123513,2.75311 4.831624,2.62205 11.740464,5.05181 23.156283,6.05689"
                fill="#d3ecec"
                id="path32"
                style="fill-rule:evenodd;stroke-width:1.00113"/>
    </g>
</svg>
